# xmcd
#
# Track frame offsets:
#	150
#	14345
#	26244
#	33927
#	43479
#	58054
#	70471
#	80945
#	91983
#	97778
#	106445
#	119595
#	126799
#	139173
#	146987
#	162365
#	179226
#	188507
#	195193
#	206266
#	217449
#	226750
#	234324
#
# Disc length: 3270 seconds
#
# Revision: 2
# Processed by: cddbd v1.5.2PL0 Copyright (c) Steve Scherf et al.
# Submitted via: audiograbber 1.83.01
#
DISCID=590cc417
DTITLE=Catherine Britt and Jay Laga'ala - Big Rock Candy Mountain - The Greates
DTITLE=t American Folk Songs
DYEAR=2012
DGENRE=Country
TTITLE0=Dont Fence Me In
TTITLE1=On Top Of Old Smokey
TTITLE2=Skip To My Lou
TTITLE3=Camptown Races
TTITLE4=This Land Is Your Land
TTITLE5=Deep In The Heart Of Texas
TTITLE6=Big Rock Candy Mountain
TTITLE7=Home On The Range
TTITLE8=Little Liza Jane
TTITLE9=Oh! Susanna
TTITLE10=Red River Valley
TTITLE11=Yankee Doodle
TTITLE12=You Are My Sunshine
TTITLE13=Clementine
TTITLE14=Casey Jones
TTITLE15=Down In The Valley
TTITLE16=Cotton Eye Joe
TTITLE17=I've Been Working On The Railroad
TTITLE18=John Henry
TTITLE19=Polly Wolly Doodle
TTITLE20=She'll Be Coming 'Round The Mountain
TTITLE21=Buffalo Gals
TTITLE22=Swing Low, Sweet Chariot
EXTD=
EXTT0=
EXTT1=
EXTT2=
EXTT3=
EXTT4=
EXTT5=
EXTT6=
EXTT7=
EXTT8=
EXTT9=
EXTT10=
EXTT11=
EXTT12=
EXTT13=
EXTT14=
EXTT15=
EXTT16=
EXTT17=
EXTT18=
EXTT19=
EXTT20=
EXTT21=
EXTT22=
PLAYORDER=
